<svg width="984" height="200" viewBox="0 0 984 200" fill="none" xmlns="http://www.w3.org/2000/svg">
<g clip-path="url(#clip0_458_171)">
<rect width="984" height="200" fill="white"/>
<path d="M0 0H200V200H0V0Z" fill="white"/>
<path d="M200 0V200H0V0H200ZM4 196H196V4H4V196Z" fill="black"/>
<path d="M63.9668 55.2002L100.433 108.177L136.543 55.2002H163.807V144.8H139.487V88.2148L111.327 130.592H88.9268L60.5107 88.9502V144.8H36.1914V55.2002H63.9668Z" fill="black"/>
<path d="M196 -124H396V76H196V-124Z" fill="white"/>
<path d="M396 -124V76H196V-124H396ZM200 72H392V-120H200V72Z" fill="black"/>
<path fill-rule="evenodd" clip-rule="evenodd" d="M356.992 20.7998H328.576L320.111 4.16016H270.864L262.399 20.7998H235.008L282.752 -68.7998H309.248L356.992 20.7998ZM280.698 -15.168H310.277L295.487 -44.2402L280.698 -15.168Z" fill="black"/>
<path d="M196 72H396V272H196V72Z" fill="white"/>
<path d="M396 72V272H196V72H396ZM200 268H392V76H200V268Z" fill="black"/>
<path fill-rule="evenodd" clip-rule="evenodd" d="M356.992 216.8H328.576L320.111 200.16H270.864L262.399 216.8H235.008L282.752 127.2H309.248L356.992 216.8ZM280.698 180.832H310.277L295.487 151.76L280.698 180.832Z" fill="black"/>
<path d="M392 -71H592V129H392V-71Z" fill="white"/>
<path d="M592 -71V129H392V-71H592ZM396 125H588V-67H396V125Z" fill="black"/>
<path fill-rule="evenodd" clip-rule="evenodd" d="M504.416 -15.7998C509.792 -15.7998 514.571 -15.1173 518.752 -13.752C522.933 -12.3866 526.432 -10.4242 529.248 -7.86426C532.149 -5.30428 534.326 -2.2324 535.776 1.35156C537.312 4.93554 538.08 8.98908 538.08 13.5117C538.08 19.1435 536.715 24.0928 533.984 28.3594C531.339 32.5407 527.499 35.8265 522.464 38.2158C519.509 39.5914 516.174 40.5561 512.458 41.1104L542.176 73.7998H510.304L483.907 43.8477H467.808V73.7998H441.824V-15.7998H504.416ZM467.808 24.2637H499.808C501.855 24.2637 503.648 24.0506 505.184 23.624C506.72 23.112 508 22.4721 509.024 21.7041C510.048 20.8508 510.816 19.7838 511.328 18.5039C511.84 17.1386 512.096 15.6448 512.096 14.0234C512.096 12.317 511.84 10.8238 511.328 9.54395C510.816 8.26405 510.048 7.23966 509.024 6.47168C508 5.61835 506.72 4.97842 505.184 4.55176C503.648 4.03982 501.855 3.78418 499.808 3.78418H467.808V24.2637Z" fill="black"/>
<path d="M392 125H592V325H392V125Z" fill="white"/>
<path d="M592 125V325H392V125H592ZM396 321H588V129H396V321Z" fill="black"/>
<path fill-rule="evenodd" clip-rule="evenodd" d="M504.416 180.2C509.792 180.2 514.571 180.883 518.752 182.248C522.933 183.613 526.432 185.576 529.248 188.136C532.149 190.696 534.326 193.768 535.776 197.352C537.312 200.936 538.08 204.989 538.08 209.512C538.08 215.143 536.715 220.093 533.984 224.359C531.339 228.541 527.499 231.826 522.464 234.216C519.509 235.591 516.174 236.556 512.458 237.11L542.176 269.8H510.304L483.907 239.848H467.808V269.8H441.824V180.2H504.416ZM467.808 220.264H499.808C501.855 220.264 503.648 220.051 505.184 219.624C506.72 219.112 508 218.472 509.024 217.704C510.048 216.851 510.816 215.784 511.328 214.504C511.84 213.139 512.096 211.645 512.096 210.023C512.096 208.317 511.84 206.824 511.328 205.544C510.816 204.264 510.048 203.24 509.024 202.472C508 201.618 506.72 200.978 505.184 200.552C503.648 200.04 501.855 199.784 499.808 199.784H467.808V220.264Z" fill="black"/>
<path d="M588 0H788V200H588V0Z" fill="white"/>
<path d="M788 0V200H588V0H788ZM592 196H784V4H592V196Z" fill="black"/>
<path fill-rule="evenodd" clip-rule="evenodd" d="M688.5 53.376C695.839 53.376 702.537 54.0585 708.596 55.4238C714.276 56.7038 719.356 58.5462 723.836 60.9512L725.611 61.9277C730.001 64.4027 733.716 67.4402 736.756 71.04C740.084 74.7947 742.601 79.0612 744.308 83.8398C746.014 88.6185 746.868 93.9092 746.868 99.7119C746.868 105.429 746.014 110.677 744.308 115.456C742.601 120.235 740.084 124.501 736.756 128.256C734.215 131.197 731.202 133.796 727.719 136.057L743.028 154.624H714.484L705.826 144.309C700.513 145.295 694.738 145.792 688.5 145.792C681.162 145.792 674.42 145.109 668.276 143.744C662.218 142.379 656.798 140.415 652.02 137.855C647.326 135.21 643.359 132.01 640.116 128.256C636.874 124.501 634.356 120.235 632.564 115.456C630.858 110.677 630.004 105.429 630.004 99.7119C630.004 93.9092 630.858 88.6185 632.564 83.8398C634.271 79.0612 636.746 74.7947 639.988 71.04C643.316 67.2001 647.326 63.9994 652.02 61.4395C656.798 58.7941 662.218 56.7892 668.276 55.4238C674.42 54.0585 681.161 53.376 688.5 53.376ZM688.5 73.8555C684.234 73.8555 680.394 74.1973 676.98 74.8799C673.567 75.5626 670.58 76.6294 668.02 78.0801C665.46 79.4454 663.327 81.1523 661.62 83.2002C659.999 85.2482 658.762 87.6376 657.908 90.3682C657.055 93.0988 656.628 96.2134 656.628 99.7119C656.628 103.125 657.055 106.197 657.908 108.928C658.762 111.573 659.999 113.962 661.62 116.096C663.327 118.144 665.46 119.851 668.02 121.216C670.58 122.581 673.567 123.605 676.98 124.288C680.394 124.971 684.234 125.312 688.5 125.312C689.773 125.312 691.01 125.279 692.212 125.216L680.564 110.848H706.932L713.065 118.287C713.819 117.606 714.506 116.876 715.124 116.096C716.831 113.962 718.111 111.573 718.964 108.928C719.817 106.197 720.244 103.125 720.244 99.7119C720.244 96.2134 719.817 93.0988 718.964 90.3682C718.111 87.6376 716.831 85.2481 715.124 83.2002C713.503 81.1522 711.412 79.4454 708.852 78.0801C706.292 76.6295 703.305 75.5625 699.892 74.8799C696.478 74.1973 692.681 73.8555 688.5 73.8555Z" fill="black"/>
<path d="M784 -120H984V80H784V-120Z" fill="white"/>
<path d="M984 -120V80H784V-120H984ZM788 76H980V-116H788V76Z" fill="black"/>
<path d="M884.604 -31.3418L908.769 -64.7998H939.232L896.864 -9.4834V24.7998H870.88V-9.76758L828.768 -64.7998H860.768L884.604 -31.3418Z" fill="black"/>
<path d="M784 76H984V276H784V76Z" fill="white"/>
<path d="M984 76V276H784V76H984ZM788 272H980V80H788V272Z" fill="black"/>
<path d="M884.604 164.658L908.769 131.2H939.232L896.864 186.517V220.8H870.88V186.232L828.768 131.2H860.768L884.604 164.658Z" fill="black"/>
<path d="M984 0V200H0V0H984ZM4 196H980V4H4V196Z" fill="black"/>
</g>
<defs>
<clipPath id="clip0_458_171">
<rect width="984" height="200" fill="white"/>
</clipPath>
</defs>
</svg>
