<svg width="20" height="20" viewBox="0 0 20 20" fill="none" xmlns="http://www.w3.org/2000/svg">
<path d="M4.6 3H15.4C15.8243 3 16.2313 3.16857 16.5314 3.46863C16.8314 3.76869 17 4.17565 17 4.6V15.4C17 15.8243 16.8314 16.2313 16.5314 16.5314C16.2313 16.8314 15.8243 17 15.4 17H4.6C4.17565 17 3.76869 16.8314 3.46863 16.5314C3.16857 16.2313 3 15.8243 3 15.4V4.6C3 4.17565 3.16857 3.76869 3.46863 3.46863C3.76869 3.16857 4.17565 3 4.6 3ZM13.644 14.898C13.061 14.898 12.731 14.594 12.477 14.18L11.517 14.738C11.864 15.424 12.573 15.948 13.671 15.948C14.794 15.948 15.631 15.364 15.631 14.3C15.631 13.312 15.063 12.873 14.059 12.442L13.763 12.316C13.256 12.096 13.036 11.952 13.036 11.597C13.036 11.31 13.256 11.091 13.602 11.091C13.942 11.091 14.16 11.234 14.363 11.598L15.283 11.006C14.894 10.321 14.353 10.06 13.602 10.06C12.546 10.06 11.87 10.735 11.87 11.621C11.87 12.584 12.437 13.04 13.29 13.403L13.586 13.53C14.126 13.766 14.446 13.91 14.446 14.315C14.446 14.653 14.134 14.898 13.644 14.898ZM9.061 14.891C8.655 14.891 8.486 14.612 8.301 14.283L7.338 14.865C7.617 15.455 8.165 15.945 9.112 15.945C10.16 15.945 10.877 15.388 10.877 14.164V10.127H9.695V14.147C9.695 14.739 9.45 14.891 9.061 14.891Z"/>
</svg>
