<svg width="20" height="20" viewBox="0 0 20 20" fill="none" xmlns="http://www.w3.org/2000/svg">
<path d="M10.0003 11.5281C10.4343 11.5281 10.8503 11.3591 11.1573 11.0591C11.4643 10.7591 11.6363 10.3521 11.6363 9.92815C11.6363 9.50415 11.4643 9.09715 11.1563 8.79715C10.847 8.49565 10.4322 8.32698 10.0003 8.32715C9.56628 8.32715 9.15028 8.49715 8.84328 8.79715C8.53628 9.09715 8.36328 9.50415 8.36328 9.92715C8.36328 10.3521 8.53628 10.7591 8.84328 11.0591C9.14928 11.3591 9.56628 11.5281 10.0003 11.5281Z" />
<path d="M17.1826 9.92773C17.1825 9.75965 17.1088 9.52182 16.8184 9.21973C16.523 8.91252 16.0472 8.59021 15.3828 8.29785C14.0565 7.71435 12.154 7.32812 10 7.32812C7.84589 7.32817 5.94342 7.71429 4.61719 8.29785C3.95297 8.59015 3.47798 8.91259 3.18262 9.21973C2.89221 9.52182 2.81847 9.75965 2.81836 9.92773C2.81836 10.0962 2.89206 10.3344 3.18262 10.6367C3.47793 10.9439 3.95287 11.2663 4.61719 11.5586C5.94339 12.142 7.84581 12.5283 10 12.5283V13.5283L9.5791 13.5234C5.2559 13.427 1.81836 11.8545 1.81836 9.92773C1.81884 7.93997 5.48146 6.32821 10 6.32812C14.5187 6.32812 18.1821 7.93991 18.1826 9.92773L18.1719 10.1133C17.953 12.0162 14.3779 13.5283 10 13.5283V12.5283C12.1541 12.5283 14.0565 12.142 15.3828 11.5586C16.0473 11.2662 16.523 10.944 16.8184 10.6367C17.1089 10.3344 17.1826 10.0962 17.1826 9.92773Z" />
<path d="M5.90986 3.00014C7.67091 2.00646 10.9293 4.30226 13.1892 8.12807C15.4482 11.9541 15.8515 15.8626 14.0905 16.8566C12.3854 17.8193 9.27258 15.6944 7.0251 12.0822L6.81025 11.7287C4.62184 8.0222 4.17456 4.23821 5.75068 3.10171L5.90986 3.00014ZM8.78584 4.57436C7.60557 3.74284 6.83845 3.68501 6.46943 3.83804L6.40107 3.87124C6.07888 4.053 5.69228 4.69715 5.84736 6.19936C5.99246 7.6043 6.59753 9.40072 7.67158 11.2199L7.87568 11.5558C8.90691 13.2128 10.1102 14.5045 11.2146 15.2824C12.4737 16.1692 13.2627 16.1756 13.5993 15.9855L13.6599 15.9464C13.967 15.7208 14.2977 15.0666 14.1521 13.6574C14.0159 12.3401 13.4753 10.6792 12.5231 8.97768L12.3278 8.63686C11.2535 6.81814 9.96341 5.40404 8.78584 4.57436Z" />
<path d="M6.81058 8.12803C9.07043 4.3025 12.3289 2.00657 14.0909 3.00006C15.8519 3.99407 15.4475 7.90261 13.1895 11.7286L12.9747 12.0822C10.7995 15.5784 7.81539 17.681 6.07816 16.9396L5.90921 16.8566C4.20232 15.8937 4.52875 12.1959 6.60355 8.48741L6.81058 8.12803ZM13.5997 3.87116C13.2616 3.68061 12.4717 3.68768 11.2129 4.57429C10.1086 5.35216 8.90621 6.64396 7.87503 8.30088L7.67093 8.63682C6.59735 10.456 5.99192 12.2524 5.84671 13.6574C5.69146 15.1598 6.07834 15.8038 6.40042 15.9855C6.73835 16.1761 7.52761 16.169 8.78617 15.2824C9.96385 14.4527 11.2538 13.0386 12.3282 11.2198L12.5235 10.879C13.4752 9.17753 14.0161 7.51658 14.1524 6.1993C14.2981 4.79058 13.9672 4.13706 13.6602 3.9112L13.5997 3.87116Z" />
</svg>
