<svg width="20" height="20" viewBox="0 0 20 20" fill="none" xmlns="http://www.w3.org/2000/svg">
<path d="M9.50091 2.92778C11.5439 1.62478 14.3709 2.23178 15.8019 4.27978V4.28178C16.1414 4.75731 16.3826 5.29579 16.5114 5.8657C16.6402 6.43561 16.654 7.02548 16.5519 7.60078C16.4516 8.14952 16.2421 8.67253 15.9359 9.13878C16.2599 9.76078 16.4309 10.4498 16.4319 11.1508C16.4319 11.4098 16.4089 11.6658 16.3619 11.9198C16.2621 12.484 16.045 13.0211 15.7248 13.4963C15.4046 13.9715 14.9884 14.3743 14.5029 14.6788L10.9159 16.9668C8.87991 18.2688 6.04591 17.6618 4.61591 15.6128C4.27548 15.1377 4.03341 14.5993 3.90393 14.0294C3.77444 13.4594 3.76016 12.8693 3.86191 12.2938C3.961 11.7449 4.1702 11.2217 4.47691 10.7558C4.15089 10.1343 3.97874 9.4436 3.97491 8.74178C3.97615 8.48325 3.99957 8.22531 4.04491 7.97078C4.14734 7.40694 4.36617 6.87065 4.68746 6.39612C5.00875 5.9216 5.42543 5.51926 5.91091 5.21478L9.50091 2.92778ZM8.43091 15.8978C8.67391 15.8978 8.91491 15.8668 9.14891 15.8058C9.40791 15.7368 9.65491 15.6288 9.87891 15.4858L13.4629 13.1998C13.8213 12.9734 14.1159 12.6591 14.3187 12.2869C14.5216 11.9146 14.6259 11.4967 14.6219 11.0728C14.6219 10.5228 14.4509 9.98578 14.1319 9.53878C13.7987 9.05935 13.3265 8.6936 12.779 8.49083C12.2315 8.28807 11.635 8.25803 11.0699 8.40478C10.8119 8.47421 10.5658 8.58208 10.3399 8.72478L8.97291 9.60178C8.84226 9.68381 8.69118 9.72747 8.53691 9.72778C8.39803 9.72793 8.26118 9.69445 8.13806 9.63019C8.01493 9.56593 7.90921 9.4728 7.82991 9.35878C7.73446 9.22318 7.68281 9.06161 7.68191 8.89578C7.68413 8.85107 7.68981 8.80661 7.69891 8.76278C7.7173 8.66048 7.75676 8.56312 7.81477 8.47687C7.87278 8.39062 7.94809 8.31738 8.03591 8.26178L11.6259 5.97478C11.6931 5.92881 11.7684 5.89621 11.8479 5.87878C11.9171 5.85825 11.9888 5.84715 12.0609 5.84578C12.3409 5.84578 12.6039 5.98278 12.7649 6.21478C12.8617 6.35046 12.9135 6.51311 12.9129 6.67978V6.74778L12.8999 6.88178L13.0339 6.92278C13.5389 7.07478 14.0139 7.31278 14.4369 7.62378L14.6209 7.75878L14.6899 7.55278C14.7249 7.44378 14.7549 7.33078 14.7759 7.21878C14.8019 7.06578 14.8149 6.91178 14.8149 6.75578C14.8173 6.20574 14.6478 5.6687 14.3299 5.21978C14.0664 4.84097 13.7149 4.53172 13.3056 4.31854C12.8963 4.10536 12.4414 3.99461 11.9799 3.99578C11.7385 3.99626 11.498 4.02649 11.2639 4.08578C11.0061 4.15632 10.7601 4.26448 10.5339 4.40678L6.94591 6.69478C6.58761 6.91992 6.2929 7.23303 6.08985 7.6043C5.8868 7.97556 5.78216 8.39263 5.78591 8.81578C5.78591 9.36478 5.95791 9.90078 6.27791 10.3498C6.61082 10.829 7.08269 11.1945 7.62987 11.3971C8.17705 11.5997 8.77321 11.6296 9.33791 11.4828C9.59555 11.4141 9.84109 11.3061 10.0659 11.1628L11.4339 10.2898C11.5633 10.2061 11.7149 10.1632 11.8689 10.1668C12.0077 10.1665 12.1445 10.1999 12.2675 10.2641C12.3904 10.3284 12.496 10.4217 12.5749 10.5358C12.6719 10.6688 12.7249 10.8318 12.7269 10.9978C12.7273 11.1253 12.6953 11.2508 12.6339 11.3626C12.5725 11.4744 12.4837 11.5687 12.3759 11.6368L8.78991 13.9348C8.72238 13.9787 8.64804 14.0111 8.56991 14.0308C8.49993 14.0504 8.42758 14.0601 8.35491 14.0598C8.13104 14.0585 7.91651 13.9699 7.757 13.8128C7.59748 13.6558 7.5056 13.4426 7.50091 13.2188V13.1498L7.51291 13.0168L7.38091 12.9778C6.87625 12.8237 6.40099 12.5861 5.97491 12.2748L5.79191 12.1358L5.72491 12.3408C5.63904 12.5977 5.5958 12.8669 5.59691 13.1378C5.59691 13.6868 5.76891 14.2248 6.09091 14.6718C6.35244 15.0504 6.70206 15.3599 7.10969 15.5734C7.51731 15.787 7.97073 15.8983 8.43091 15.8978Z" />
</svg>
